<svg width="1280" height="720" viewBox="0 0 1280 720" fill="none" xmlns="http://www.w3.org/2000/svg">
<g clip-path="url(#clip0_1_5)">
<rect width="1280" height="720" rx="20" fill="url(#paint0_linear_1_5)"/>
<g style="mix-blend-mode:screen" filter="url(#filter0_f_1_5)">
<path d="M-34.7324 837.132C-19.1207 851.147 3.87418 849.005 16.628 832.347L173.907 626.917C186.661 610.259 184.344 585.393 168.733 571.377V571.377C153.121 557.362 130.126 559.504 117.372 576.163L-39.9071 781.592C-52.6609 798.25 -50.3441 823.116 -34.7324 837.132V837.132Z" fill="url(#paint1_radial_1_5)"/>
</g>
<g style="mix-blend-mode:screen" filter="url(#filter1_f_1_5)">
<path d="M-173.888 710.179C-74.4156 767.7 46.4149 730.297 95.994 626.636L123.229 569.693C172.808 466.033 132.361 335.37 32.8883 277.849V277.849C-66.5845 220.328 -187.415 257.731 -236.994 361.391L-264.229 418.334C-313.808 521.994 -273.361 652.658 -173.888 710.179V710.179Z" fill="url(#paint2_radial_1_5)"/>
</g>
<g style="mix-blend-mode:overlay">
<path d="M8.06383 588.152C-0.881291 645.277 13.372 743.554 141.946 679.663C302.664 599.8 760.119 440.653 658.307 747.391" stroke="white" stroke-width="0.697114"/>
<path d="M520.315 -274.075C628.683 174.507 -162.899 -84.9768 41.1779 -17.7021C592.343 163.991 370.525 576.567 608.894 784.936" stroke="white" stroke-width="0.697114"/>
<path d="M12.9869 563.653C7.10765 633.596 -3.94148 718.878 126.819 659.353C299.626 588.629 734.139 446.665 643.468 750.839" stroke="white" stroke-width="0.697114"/>
<path d="M18.243 538.754C15.4779 621.504 -20.9224 693.886 112.04 638.718C296.973 577.087 708.61 452.394 629.07 753.962" stroke="white" stroke-width="0.697114"/>
<path d="M23.7823 513.503C24.1796 609.048 -37.6205 668.627 97.5621 617.807C294.654 565.223 683.482 457.885 615.062 756.807" stroke="white" stroke-width="0.697114"/>
<path d="M29.5632 487.938C33.1709 596.266 -54.0771 643.138 83.342 596.657C292.629 553.074 658.713 463.178 601.404 759.412" stroke="white" stroke-width="0.697114"/>
<path d="M35.5511 462.09C42.4174 583.19 -70.3266 617.45 69.3458 575.3C290.862 540.673 634.27 468.302 588.061 761.808" stroke="white" stroke-width="0.697114"/>
<path d="M41.7171 435.987C51.8901 569.847 -86.3975 591.592 55.545 553.764C289.324 528.046 610.125 473.286 575.005 764.023" stroke="white" stroke-width="0.697114"/>
<path d="M48.0367 409.652C61.5645 556.26 -102.314 565.585 41.9152 532.072C287.992 515.215 586.252 478.152 562.211 766.079" stroke="white" stroke-width="0.697114"/>
<path d="M54.4889 383.104C71.4195 542.447 -118.097 539.45 28.4356 510.241C286.845 502.201 562.631 482.918 549.659 767.996" stroke="white" stroke-width="0.697114"/>
<path d="M61.0552 356.359C81.4367 528.426 -133.765 513.203 15.0879 488.29C285.863 489.019 539.245 487.602 537.33 769.788" stroke="white" stroke-width="0.697114"/>
<path d="M67.7204 329.434C91.6005 514.211 -149.333 486.859 1.85707 466.233C285.032 475.685 516.077 492.217 525.208 771.472" stroke="white" stroke-width="0.697114"/>
<path d="M74.47 302.339C101.897 499.815 -164.815 460.431 -11.271 444.083C284.337 462.211 493.115 496.776 513.281 773.059" stroke="white" stroke-width="0.697114"/>
<path d="M82.6764 276.406C113.698 486.567 -178.838 435.248 -22.9239 423.17C285.152 449.928 471.73 502.61 502.921 775.88" stroke="white" stroke-width="0.697114"/>
<path d="M97.6292 256.665C132.293 479.499 -186.113 416.342 -27.8118 408.524C292.764 443.863 457.213 514.747 499.416 784.964" stroke="white" stroke-width="0.697114"/>
<path d="M112.748 236.835C151.102 472.328 -193.22 397.43 -32.5151 393.863C300.595 437.738 442.983 526.906 496.188 794.029" stroke="white" stroke-width="0.697114"/>
<path d="M128.004 216.903C170.096 465.042 -200.187 378.501 -37.0616 379.177C308.616 431.54 429.013 539.075 493.207 803.064" stroke="white" stroke-width="0.697114"/>
<path d="M143.376 196.863C189.254 457.636 -207.035 359.549 -41.4729 364.457C316.805 425.262 415.281 551.247 490.453 812.062" stroke="white" stroke-width="0.697114"/>
<path d="M158.847 176.712C208.558 450.104 -213.78 340.57 -45.7653 349.702C325.146 418.9 401.77 563.419 487.909 821.019" stroke="white" stroke-width="0.697114"/>
<path d="M174.404 156.448C227.997 442.446 -220.437 321.561 -49.9523 334.908C333.625 412.452 388.468 575.588 485.561 829.932" stroke="white" stroke-width="0.697114"/>
<path d="M190.036 136.07C247.557 434.66 -227.015 302.523 -54.0448 320.075C342.232 405.918 375.364 587.752 483.399 838.801" stroke="white" stroke-width="0.697114"/>
<path d="M210.245 110.699C271.743 421.868 -229.012 278.576 -53.5392 300.324C355.469 394.419 366.961 595.034 485.926 842.747" stroke="white" stroke-width="0.697114"/>
<path d="M238.722 76.2688C304.244 400.002 -222.738 245.654 -44.7457 271.589C377.026 373.887 366.949 593.365 496.833 837.702" stroke="white" stroke-width="0.697114"/>
<path d="M267.147 41.7327C336.74 378.017 -216.511 212.711 -35.9839 242.823C398.584 353.277 367.009 591.699 507.799 832.62" stroke="white" stroke-width="0.697114"/>
<path d="M295.518 7.08945C369.23 355.91 -210.334 179.744 -27.2556 214.024C420.141 332.586 367.139 590.035 518.822 827.499" stroke="white" stroke-width="0.697114"/>
<path d="M323.831 -27.6631C401.71 333.679 -204.21 146.753 -18.5632 185.19C441.694 311.813 367.336 588.37 529.901 822.337" stroke="white" stroke-width="0.697114"/>
<path d="M352.086 -62.526C434.178 311.324 -198.139 113.735 -9.90824 156.321C463.241 290.956 367.6 586.702 541.033 817.132" stroke="white" stroke-width="0.697114"/>
<path d="M380.281 -97.5005C466.634 288.842 -192.124 80.6896 -1.29199 127.415C484.781 270.014 367.93 585.03 552.217 811.883" stroke="white" stroke-width="0.697114"/>
<path d="M408.415 -132.587C499.076 266.234 -186.164 47.6165 7.28444 98.4712C506.313 248.986 368.323 583.353 563.453 806.589" stroke="white" stroke-width="0.697114"/>
<path d="M436.485 -167.787C531.502 243.497 -180.262 14.5144 15.8197 69.4888C527.836 227.87 368.779 581.669 574.739 801.249" stroke="white" stroke-width="0.697114"/>
<path d="M464.492 -203.1C563.912 220.632 -174.417 -18.6171 24.3134 40.4672C549.348 206.668 369.298 579.979 586.074 795.861" stroke="white" stroke-width="0.697114"/>
</g>
<g style="mix-blend-mode:screen" filter="url(#filter2_f_1_5)">
<path d="M608.63 490.812C607.73 500.649 615.007 508.729 624.885 508.858L1006.76 513.862C1016.64 513.991 1025.38 506.121 1026.28 496.284V496.284C1027.18 486.447 1019.9 478.367 1010.02 478.238L628.145 473.234C618.267 473.105 609.53 480.975 608.63 490.812V490.812Z" fill="url(#paint3_radial_1_5)"/>
</g>
<g filter="url(#filter3_ddd_1_5)">
<g filter="url(#filter4_b_1_5)">
<rect x="659.889" y="411" width="323.63" height="68" rx="15" fill="#9E0759"/>
<rect x="661.778" y="412.889" width="319.852" height="64.2222" rx="13.1111" stroke="url(#paint4_linear_1_5)" stroke-width="3.77778"/>
</g>
<g filter="url(#filter5_d_1_5)">
<path d="M698.316 436.554V453.889H696.053V436.554H698.316ZM720.901 453.889H718.638L709.535 440.086V453.889H707.272V436.529H709.535L718.638 450.307V436.529H720.901V453.889ZM732.121 436.554V453.889H729.858V436.554H732.121ZM740.231 445.209C740.231 443.518 740.613 442.001 741.375 440.658C742.138 439.298 743.174 438.237 744.484 437.474C745.811 436.711 747.278 436.33 748.886 436.33C750.777 436.33 752.426 436.786 753.836 437.698C755.245 438.61 756.273 439.903 756.92 441.578H754.209C753.728 440.533 753.031 439.729 752.12 439.165C751.224 438.602 750.146 438.32 748.886 438.32C747.676 438.32 746.59 438.602 745.628 439.165C744.667 439.729 743.912 440.533 743.365 441.578C742.818 442.606 742.544 443.816 742.544 445.209C742.544 446.585 742.818 447.796 743.365 448.84C743.912 449.868 744.667 450.664 745.628 451.228C746.59 451.791 747.676 452.073 748.886 452.073C750.146 452.073 751.224 451.8 752.12 451.253C753.031 450.689 753.728 449.885 754.209 448.84H756.92C756.273 450.498 755.245 451.783 753.836 452.695C752.426 453.59 750.777 454.038 748.886 454.038C747.278 454.038 745.811 453.665 744.484 452.919C743.174 452.156 742.138 451.103 741.375 449.76C740.613 448.417 740.231 446.9 740.231 445.209ZM767.65 436.554V453.889H765.387V436.554H767.65ZM786.853 450.034H779.292L777.899 453.889H775.512L781.779 436.653H784.391L790.633 453.889H788.246L786.853 450.034ZM786.206 448.193L783.073 439.439L779.939 448.193H786.206ZM807.591 453.889L803.462 446.801H800.726V453.889H798.463V436.554H804.059C805.369 436.554 806.472 436.778 807.367 437.225C808.279 437.673 808.959 438.278 809.406 439.041C809.854 439.804 810.078 440.674 810.078 441.652C810.078 442.846 809.73 443.899 809.033 444.811C808.353 445.723 807.325 446.328 805.949 446.627L810.302 453.889H807.591ZM800.726 444.985H804.059C805.286 444.985 806.206 444.687 806.82 444.09C807.433 443.476 807.74 442.664 807.74 441.652C807.74 440.624 807.433 439.829 806.82 439.265C806.223 438.701 805.303 438.419 804.059 438.419H800.726V444.985ZM840.669 450.034H833.108L831.715 453.889H829.328L835.595 436.653H838.207L844.449 453.889H842.062L840.669 450.034ZM840.022 448.193L836.889 439.439L833.755 448.193H840.022ZM865.908 453.889H863.645L854.542 440.086V453.889H852.279V436.529H854.542L863.645 450.307V436.529H865.908V453.889ZM885.112 450.034H877.551L876.158 453.889H873.771L880.038 436.653H882.649L888.892 453.889H886.504L885.112 450.034ZM884.465 448.193L881.331 439.439L878.198 448.193H884.465ZM883.769 432.799L878.471 435.634V433.943L883.769 430.834V432.799ZM898.985 452.048H905.054V453.889H896.722V436.554H898.985V452.048ZM914.819 436.554V453.889H912.556V436.554H914.819ZM929.271 454.063C928.127 454.063 927.099 453.864 926.187 453.466C925.292 453.052 924.587 452.488 924.073 451.775C923.559 451.045 923.294 450.208 923.277 449.263H925.69C925.773 450.075 926.104 450.763 926.685 451.327C927.282 451.874 928.144 452.148 929.271 452.148C930.349 452.148 931.195 451.883 931.808 451.352C932.438 450.805 932.753 450.109 932.753 449.263C932.753 448.6 932.571 448.061 932.206 447.646C931.841 447.232 931.385 446.917 930.838 446.701C930.291 446.486 929.553 446.254 928.625 446.005C927.481 445.706 926.56 445.408 925.864 445.11C925.184 444.811 924.596 444.347 924.098 443.717C923.617 443.07 923.377 442.208 923.377 441.13C923.377 440.185 923.617 439.348 924.098 438.618C924.579 437.889 925.25 437.325 926.113 436.927C926.991 436.529 927.995 436.33 929.122 436.33C930.747 436.33 932.073 436.736 933.101 437.549C934.146 438.361 934.735 439.439 934.867 440.782H932.38C932.297 440.119 931.949 439.538 931.336 439.041C930.722 438.527 929.91 438.27 928.898 438.27C927.953 438.27 927.182 438.519 926.585 439.016C925.988 439.497 925.69 440.177 925.69 441.056C925.69 441.686 925.864 442.2 926.212 442.598C926.577 442.996 927.016 443.302 927.53 443.518C928.061 443.717 928.799 443.949 929.744 444.214C930.888 444.529 931.808 444.844 932.504 445.159C933.201 445.458 933.798 445.93 934.295 446.577C934.793 447.207 935.041 448.069 935.041 449.163C935.041 450.009 934.817 450.805 934.37 451.551C933.922 452.297 933.259 452.902 932.38 453.367C931.501 453.831 930.465 454.063 929.271 454.063ZM945.734 438.394V444.189H952.051V446.055H945.734V452.024H952.797V453.889H943.47V436.529H952.797V438.394H945.734Z" fill="white"/>
</g>
</g>
<g clip-path="url(#clip1_1_5)">
<path d="M472.574 398.425C467.74 399.677 463.41 402.39 460.174 406.194L449.047 363.364L406.216 374.491C409.609 377.388 412.144 381.159 413.544 385.396C414.943 389.632 415.154 394.172 414.154 398.52C413.153 402.868 410.98 406.858 407.869 410.057C404.759 413.256 400.831 415.541 396.513 416.662C392.194 417.784 387.651 417.701 383.377 416.42C379.103 415.14 375.262 412.712 372.271 409.401C369.281 406.09 367.256 402.022 366.416 397.64C365.576 393.258 365.955 388.73 367.509 384.548L324.676 395.676L335.804 438.507C338.7 435.113 342.472 432.578 346.708 431.179C350.945 429.779 355.484 429.568 359.832 430.569C364.18 431.569 368.171 433.743 371.369 436.853C374.568 439.964 376.853 443.892 377.975 448.21C379.097 452.528 379.013 457.072 377.733 461.346C376.453 465.62 374.025 469.461 370.713 472.451C367.402 475.442 363.334 477.467 358.952 478.306C354.57 479.146 350.042 478.768 345.86 477.213L356.988 520.044L399.819 508.916C398.264 513.098 397.886 517.627 398.725 522.009C399.565 526.391 401.59 530.458 404.58 533.77C407.571 537.081 411.412 539.509 415.686 540.789C419.96 542.069 424.503 542.153 428.822 541.031C433.14 539.909 437.068 537.625 440.179 534.426C443.289 531.227 445.463 527.236 446.463 522.888C447.463 518.54 447.252 514.001 445.853 509.765C444.453 505.528 441.919 501.756 438.525 498.86L481.356 487.732L470.229 444.904C473.82 446.235 477.674 446.702 481.479 446.267C485.284 445.832 488.933 444.508 492.131 442.4C495.328 440.293 497.985 437.462 499.885 434.137C501.786 430.812 502.877 427.086 503.069 423.261C503.262 419.436 502.552 415.619 500.995 412.12C499.439 408.621 497.08 405.537 494.11 403.119C491.141 400.701 487.643 399.016 483.901 398.2C480.159 397.385 476.278 397.462 472.571 398.426L472.574 398.425Z" fill="#AC1D5C"/>
<path d="M389.298 502.737L354.819 511.695L356.988 520.047L387.787 512.045C387.679 508.873 388.193 505.712 389.298 502.737V502.737Z" fill="#550327"/>
<path d="M485.397 398.574C489.35 402.501 491.84 407.663 492.45 413.202C493.061 418.74 491.756 424.321 488.753 429.014C485.749 433.708 481.229 437.231 475.944 438.998C470.66 440.764 464.929 440.667 459.708 438.722L470.835 481.553L428.007 492.68C432.246 496.295 435.12 501.253 436.149 506.729C437.178 512.204 436.3 517.867 433.663 522.775C431.025 527.682 426.786 531.538 421.652 533.701C416.518 535.864 410.797 536.203 405.443 534.663C407.764 536.989 410.532 538.822 413.579 540.052C416.626 541.282 419.89 541.884 423.176 541.821C426.461 541.758 429.7 541.032 432.698 539.686C435.696 538.34 438.391 536.403 440.622 533.99C442.852 531.577 444.572 528.738 445.678 525.643C446.784 522.549 447.254 519.263 447.058 515.983C446.863 512.702 446.007 509.495 444.541 506.554C443.075 503.613 441.031 500.998 438.529 498.867L481.36 487.739L470.231 444.903C473.31 446.046 476.587 446.556 479.867 446.402C483.147 446.248 486.363 445.433 489.32 444.006C492.278 442.579 494.917 440.57 497.079 438.099C499.241 435.627 500.882 432.745 501.904 429.624C502.925 426.503 503.306 423.208 503.023 419.937C502.741 416.665 501.8 413.484 500.259 410.585C498.717 407.686 496.606 405.127 494.051 403.064C491.497 401 488.553 399.473 485.394 398.575L485.397 398.574Z" fill="#690C35"/>
<path d="M413.985 386.891C415.595 393.067 414.711 399.63 411.524 405.16C416.02 405.399 420.495 404.386 424.45 402.236C428.406 400.085 431.689 396.881 433.934 392.978C436.179 389.075 437.299 384.626 437.169 380.125C437.039 375.625 435.664 371.248 433.197 367.481L406.216 374.491C410.02 377.727 412.733 382.057 413.985 386.891V386.891Z" fill="#690C35"/>
<path d="M250.284 267.82C251.543 272.652 251.281 277.755 249.533 282.433L292.364 271.305L303.491 314.136C299.309 312.581 294.781 312.203 290.399 313.043C286.017 313.883 281.949 315.908 278.638 318.898C275.327 321.888 272.899 325.73 271.618 330.004C270.338 334.278 270.254 338.821 271.376 343.139C272.498 347.458 274.783 351.386 277.982 354.496C281.181 357.607 285.171 359.78 289.519 360.781C293.867 361.781 298.407 361.57 302.643 360.17C306.88 358.771 310.651 356.236 313.548 352.843L324.676 395.676L281.845 406.804C283.4 402.622 283.778 398.093 282.938 393.711C282.099 389.329 280.074 385.261 277.083 381.95C274.093 378.639 270.252 376.211 265.978 374.931C261.704 373.651 257.16 373.567 252.842 374.689C248.524 375.811 244.596 378.095 241.485 381.294C238.375 384.493 236.201 388.484 235.201 392.832C234.2 397.18 234.411 401.719 235.811 405.955C237.21 410.192 239.745 413.964 243.139 416.86L200.305 427.988L189.178 385.158C186.281 388.551 182.51 391.086 178.273 392.485C174.037 393.885 169.497 394.096 165.149 393.096C160.801 392.095 156.811 389.922 153.612 386.811C150.413 383.701 148.128 379.773 147.006 375.454C145.885 371.136 145.968 366.593 147.249 362.319C148.529 358.045 150.957 354.203 154.268 351.213C157.579 348.223 161.647 346.197 166.029 345.358C170.411 344.518 174.939 344.896 179.121 346.451L167.993 303.618L210.824 292.49C207.913 290.001 205.629 286.862 204.157 283.326C202.685 279.791 202.066 275.958 202.35 272.139C202.634 268.32 203.814 264.621 205.794 261.343C207.773 258.064 210.497 255.298 213.744 253.268C216.992 251.237 220.671 250 224.486 249.657C228.3 249.313 232.142 249.872 235.7 251.289C239.258 252.706 242.432 254.941 244.966 257.813C247.5 260.685 249.321 264.113 250.284 267.82V267.82Z" fill="#FF258E"/>
<path d="M157.296 381.48C156.171 377.164 156.252 372.622 157.53 368.349C158.808 364.075 161.234 360.234 164.543 357.244C167.852 354.253 171.918 352.228 176.299 351.388C180.679 350.548 185.206 350.926 189.387 352.48L178.259 309.65L221.09 298.522C216.844 294.896 213.971 289.922 212.951 284.433C211.931 278.943 212.826 273.27 215.486 268.36C218.146 263.451 222.41 259.603 227.565 257.46C232.721 255.316 238.456 255.007 243.813 256.583C241.482 254.274 238.709 252.459 235.66 251.247C232.611 250.035 229.349 249.45 226.069 249.527C222.789 249.604 219.559 250.342 216.57 251.697C213.582 253.052 210.898 254.995 208.678 257.411C206.459 259.827 204.749 262.666 203.652 265.758C202.555 268.851 202.092 272.132 202.293 275.407C202.493 278.682 203.352 281.883 204.818 284.818C206.283 287.753 208.326 290.363 210.824 292.49L167.993 303.618L179.121 346.449C176.05 345.314 172.783 344.81 169.514 344.964C166.244 345.119 163.04 345.93 160.09 347.35C157.141 348.769 154.507 350.767 152.346 353.225C150.185 355.683 148.54 358.551 147.511 361.658C146.481 364.765 146.088 368.048 146.353 371.31C146.618 374.573 147.538 377.748 149.056 380.648C150.574 383.547 152.66 386.112 155.191 388.188C157.721 390.265 160.643 391.811 163.783 392.735C160.639 389.641 158.397 385.751 157.296 381.48V381.48Z" fill="#FA8CB4"/>
<path d="M360.474 477.967C355.641 479.226 350.538 478.964 345.861 477.216L356.988 520.047L314.158 531.174C315.712 526.992 316.09 522.464 315.251 518.082C314.411 513.7 312.386 509.632 309.396 506.321C306.405 503.01 302.564 500.582 298.29 499.301C294.016 498.021 289.473 497.937 285.154 499.059C280.836 500.181 276.908 502.466 273.798 505.665C270.687 508.864 268.514 512.854 267.513 517.202C266.513 521.55 266.724 526.089 268.123 530.326C269.523 534.562 272.057 538.334 275.451 541.231L232.618 552.359L221.49 509.528C225.672 511.083 230.201 511.461 234.583 510.621C238.965 509.782 243.032 507.757 246.344 504.766C249.655 501.776 252.083 497.935 253.363 493.661C254.643 489.387 254.727 484.843 253.605 480.525C252.483 476.207 250.198 472.279 247 469.168C243.801 466.058 239.81 463.884 235.462 462.884C231.114 461.883 226.575 462.094 222.338 463.494C218.102 464.893 214.33 467.428 211.434 470.822L200.305 427.988L243.136 416.861C239.742 413.964 237.208 410.193 235.808 405.956C234.409 401.72 234.198 397.18 235.198 392.832C236.199 388.484 238.372 384.494 241.483 381.295C244.593 378.096 248.521 375.811 252.839 374.689C257.158 373.568 261.701 373.651 265.975 374.932C270.249 376.212 274.09 378.64 277.081 381.951C280.071 385.262 282.096 389.33 282.936 393.712C283.775 398.094 283.397 402.622 281.843 406.804L324.676 395.676L335.804 438.507C338.293 435.596 341.432 433.312 344.967 431.84C348.503 430.368 352.335 429.749 356.155 430.033C359.974 430.317 363.673 431.497 366.951 433.477C370.23 435.456 372.996 438.18 375.026 441.427C377.056 444.675 378.294 448.354 378.637 452.169C378.981 455.983 378.422 459.825 377.005 463.383C375.588 466.941 373.353 470.115 370.481 472.649C367.609 475.183 364.181 477.004 360.474 477.967V477.967Z" fill="#F257A0"/>
<path d="M361.476 431.019C365.54 434.894 368.141 440.054 368.841 445.626C369.54 451.197 368.295 456.84 365.315 461.6C362.336 466.36 357.804 469.945 352.487 471.75C347.169 473.555 341.392 473.469 336.13 471.507L347.258 514.338L315.685 522.541C315.704 525.49 315.187 528.418 314.16 531.182L356.99 520.054L345.861 477.216C348.92 478.35 352.176 478.859 355.436 478.713C358.696 478.566 361.893 477.767 364.838 476.363C367.784 474.958 370.417 472.977 372.583 470.537C374.749 468.096 376.404 465.246 377.448 462.155C378.493 459.064 378.907 455.794 378.666 452.54C378.424 449.286 377.532 446.114 376.043 443.21C374.553 440.307 372.496 437.732 369.994 435.638C367.491 433.544 364.594 431.974 361.474 431.019L361.476 431.019Z" fill="#550327"/>
<path d="M275.428 493.367C271.11 494.485 267.181 496.766 264.069 499.962C260.958 503.158 258.783 507.147 257.781 511.494C256.78 515.84 256.99 520.379 258.389 524.614C259.788 528.85 262.322 532.62 265.716 535.515L230.598 544.639L232.605 552.362L275.449 541.231C271.186 537.589 268.308 532.59 267.3 527.074C266.291 521.559 267.214 515.865 269.912 510.95C272.609 506.035 276.918 502.2 282.112 500.089C287.306 497.978 293.069 497.722 298.43 499.362C295.429 496.479 291.738 494.414 287.711 493.364C283.684 492.314 279.455 492.315 275.428 493.367V493.367Z" fill="#690C35"/>
<path d="M302.505 254.045L313.633 296.876C309.451 295.321 304.922 294.943 300.54 295.782C296.158 296.622 292.09 298.647 288.779 301.637C285.468 304.628 283.04 308.469 281.76 312.743C280.48 317.017 280.396 321.56 281.518 325.879C282.64 330.197 284.924 334.125 288.123 337.236C291.322 340.346 295.313 342.52 299.661 343.52C304.009 344.52 308.548 344.309 312.784 342.91C317.021 341.51 320.793 338.976 323.689 335.582L334.817 378.415L377.648 367.288C376.093 371.47 375.715 375.998 376.555 380.38C377.395 384.762 379.42 388.83 382.41 392.141C385.4 395.452 389.242 397.88 393.516 399.16C397.79 400.441 402.333 400.524 406.651 399.402C410.97 398.281 414.898 395.996 418.008 392.797C421.119 389.598 423.292 385.608 424.293 381.26C425.293 376.912 425.082 372.372 423.682 368.136C422.283 363.899 419.748 360.128 416.355 357.231L459.185 346.104L426.873 221.733L302.505 254.045Z" fill="#690C35"/>
<path d="M418.441 277.666L413.073 257.005L384.922 284.442L351.986 293C349.293 293.699 346.989 295.439 345.58 297.838C344.171 300.236 343.773 303.095 344.472 305.788L348.805 322.465C349.504 325.157 351.245 327.461 353.643 328.87C356.041 330.279 358.901 330.678 361.593 329.978L372.652 345.236C376.072 349.954 380.835 353.531 386.319 355.5C391.803 357.469 397.753 357.738 403.392 356.273L380.731 325.017L394.532 321.431L432.479 331.698L427.11 311.03C429.882 308.745 431.917 305.691 432.957 302.252C433.996 298.812 433.995 295.142 432.952 291.704C432.189 288.193 430.404 284.986 427.822 282.488C425.24 279.99 421.976 278.312 418.441 277.666V277.666Z" fill="#9E0759"/>
<path d="M369.711 314.198L350.576 319.17C347.884 319.869 345.024 319.471 342.626 318.061C340.227 316.652 338.487 314.348 337.788 311.656L333.452 294.969C332.753 292.277 333.151 289.417 334.56 287.019C335.969 284.621 338.274 282.88 340.966 282.181L360.104 277.209L369.711 314.198Z" fill="#690C35"/>
<path d="M340.966 282.181C338.274 282.88 335.969 284.621 334.56 287.019C333.151 289.417 332.753 292.277 333.452 294.969L334.672 299.665C333.973 296.973 334.371 294.113 335.78 291.715C337.19 289.317 339.494 287.576 342.186 286.877L361.324 281.905L360.104 277.209L340.966 282.181Z" fill="#BEE6FF"/>
<path d="M421.457 320.872L383.51 310.605L373.902 273.624L402.053 246.184L421.457 320.872Z" fill="#690C35"/>
<path d="M373.902 273.624L375.122 278.32L403.273 250.88L402.053 246.184L373.902 273.624Z" fill="#BEE6FF"/>
<path d="M420.237 316.176L421.457 320.872L383.51 310.605L382.29 305.909L420.237 316.176Z" fill="#96BEF0"/>
<path d="M392.374 345.459C386.734 346.924 380.784 346.655 375.3 344.686C369.816 342.717 365.053 339.14 361.634 334.422L350.576 319.17L369.714 314.198L392.374 345.459Z" fill="#690C35"/>
<path d="M355.914 326.531L375.049 321.559L369.709 314.191L350.574 319.162L355.914 326.531Z" fill="#D2648C"/>
<path d="M373.902 273.624L360.101 277.209L369.709 314.191L383.51 310.605L373.902 273.624Z" fill="#F257A0"/>
<path d="M373.902 273.624L360.101 277.209L361.321 281.905L375.122 278.32L373.902 273.624Z" fill="#C8BEFF"/>
<path d="M350.576 319.17C347.883 319.869 345.024 319.471 342.626 318.061C340.227 316.652 338.487 314.348 337.788 311.656L336.562 306.94C337.262 309.632 339.002 311.936 341.4 313.345C343.798 314.754 346.658 315.153 349.35 314.453L368.488 309.481L369.714 314.198L350.576 319.17Z" fill="#96BEF0"/>
<path d="M382.29 305.909L368.489 309.495L369.709 314.191L383.51 310.605L382.29 305.909Z" fill="#A99BE0"/>
<path d="M407.421 266.847L416.09 300.211C418.863 297.927 420.897 294.872 421.937 291.433C422.976 287.994 422.975 284.324 421.932 280.885C421.169 277.374 419.384 274.167 416.802 271.669C414.22 269.171 410.956 267.493 407.421 266.847V266.847Z" fill="#E678A0"/>
<path d="M413.781 291.324L416.09 300.211C418.863 297.927 420.897 294.872 421.937 291.433C422.976 287.994 422.975 284.324 421.932 280.885C421.531 279.393 420.967 277.949 420.25 276.58C420.444 279.378 419.957 282.181 418.83 284.749C417.704 287.317 415.971 289.573 413.781 291.324Z" fill="#D2648C"/>
<path d="M429.485 543.573C425.095 544.716 420.487 544.735 416.087 543.63C411.687 542.524 407.637 540.329 404.308 537.247C400.979 534.165 398.479 530.294 397.039 525.993C395.599 521.691 395.264 517.095 396.066 512.63L357.654 522.61C356.975 522.786 356.252 522.686 355.647 522.33C355.041 521.974 354.602 521.392 354.425 520.713L343.297 477.882C343.175 477.413 343.184 476.92 343.323 476.455C343.462 475.991 343.725 475.574 344.085 475.249C344.444 474.925 344.886 474.705 345.362 474.614C345.838 474.522 346.329 474.563 346.783 474.732C350.511 476.118 354.548 476.455 358.454 475.707C362.361 474.958 365.987 473.153 368.939 470.487C371.89 467.821 374.055 464.397 375.196 460.587C376.337 456.777 376.412 452.727 375.412 448.877C374.412 445.028 372.375 441.526 369.523 438.753C366.672 435.981 363.115 434.043 359.239 433.151C355.362 432.259 351.316 432.447 347.539 433.695C343.763 434.942 340.401 437.202 337.819 440.227C337.504 440.596 337.095 440.871 336.635 441.023C336.175 441.175 335.682 441.198 335.21 441.089C334.738 440.98 334.304 440.744 333.957 440.406C333.61 440.068 333.362 439.642 333.24 439.173L322.113 396.342C321.936 395.662 322.037 394.94 322.392 394.334C322.748 393.729 323.33 393.289 324.01 393.113L366.841 381.985C367.31 381.863 367.803 381.873 368.266 382.012C368.73 382.151 369.147 382.415 369.471 382.774C369.796 383.134 370.016 383.575 370.107 384.051C370.198 384.526 370.157 385.018 369.988 385.472C368.601 389.198 368.264 393.234 369.012 397.14C369.761 401.045 371.566 404.67 374.233 407.62C376.899 410.57 380.324 412.732 384.134 413.87C387.944 415.009 391.993 415.08 395.841 414.076C400.102 412.948 403.924 410.558 406.803 407.219C409.682 403.881 411.484 399.749 411.973 395.368C412.014 394.995 412.132 394.635 412.322 394.312C412.512 393.989 412.768 393.709 413.073 393.492C416.661 390.975 419.398 387.425 420.921 383.315C422.443 379.205 422.679 374.729 421.598 370.481C421.427 369.804 421.532 369.086 421.888 368.485C422.244 367.884 422.824 367.448 423.5 367.273L423.521 367.267C423.858 367.182 424.209 367.165 424.553 367.216C424.897 367.266 425.228 367.384 425.526 367.563C425.825 367.742 426.085 367.977 426.292 368.257C426.5 368.536 426.65 368.853 426.735 369.19C428.034 374.279 427.813 379.636 426.097 384.6C424.382 389.564 421.249 393.915 417.085 397.116C416.147 403.271 413.114 408.914 408.497 413.091C403.881 417.268 397.964 419.724 391.746 420.043C385.528 420.362 379.39 418.525 374.37 414.842C369.35 411.159 365.755 405.857 364.193 399.83C363.205 396.051 363.054 392.103 363.751 388.26L327.905 397.573L337.218 433.419C340.729 430.545 344.907 428.601 349.366 427.765C353.825 426.929 358.423 427.229 362.737 428.636C367.05 430.043 370.94 432.513 374.049 435.818C377.157 439.122 379.384 443.156 380.525 447.547C381.666 451.939 381.684 456.546 380.577 460.946C379.47 465.346 377.274 469.397 374.192 472.726C371.109 476.054 367.238 478.554 362.936 479.995C358.633 481.435 354.038 481.77 349.572 480.969L358.885 516.815L399.153 506.353C399.621 506.231 400.114 506.241 400.578 506.38C401.042 506.519 401.459 506.783 401.783 507.142C402.108 507.502 402.327 507.943 402.418 508.419C402.509 508.894 402.468 509.386 402.3 509.84C400.915 513.568 400.578 517.604 401.327 521.51C402.076 525.416 403.882 529.041 406.548 531.992C409.214 534.943 412.638 537.107 416.447 538.248C420.257 539.389 424.307 539.464 428.156 538.464C432.005 537.464 435.507 535.427 438.279 532.576C441.052 529.725 442.989 526.168 443.882 522.293C444.774 518.417 444.586 514.371 443.339 510.595C442.093 506.818 439.834 503.456 436.81 500.874C436.441 500.559 436.166 500.15 436.014 499.69C435.862 499.23 435.839 498.738 435.948 498.266C436.056 497.794 436.292 497.361 436.629 497.013C436.967 496.666 437.393 496.418 437.862 496.296L478.132 485.834L467.67 445.569C467.549 445.1 467.558 444.607 467.697 444.143C467.837 443.679 468.1 443.262 468.46 442.938C468.819 442.614 469.261 442.394 469.736 442.303C470.212 442.212 470.703 442.253 471.157 442.422C474.885 443.807 478.922 444.144 482.828 443.395C486.734 442.646 490.36 440.841 493.311 438.175C496.263 435.509 498.427 432.085 499.568 428.275C500.709 424.465 500.783 420.415 499.783 416.566C498.783 412.717 496.747 409.215 493.895 406.442C491.044 403.67 487.487 401.732 483.611 400.84C479.735 399.948 475.689 400.136 471.913 401.383C468.136 402.63 464.774 404.889 462.192 407.914C461.877 408.282 461.468 408.557 461.008 408.709C460.549 408.861 460.056 408.884 459.584 408.776C459.112 408.668 458.679 408.432 458.332 408.094C457.984 407.757 457.736 407.331 457.614 406.862L447.152 366.592L437.89 368.998C437.211 369.175 436.488 369.074 435.883 368.718C435.277 368.363 434.838 367.781 434.661 367.101C434.484 366.421 434.585 365.699 434.941 365.093C435.297 364.488 435.879 364.048 436.558 363.872L448.383 360.8C449.063 360.623 449.785 360.724 450.391 361.079C450.996 361.435 451.436 362.017 451.612 362.697L461.591 401.106C465.102 398.233 469.28 396.289 473.739 395.454C478.198 394.618 482.796 394.918 487.109 396.325C491.422 397.733 495.312 400.202 498.42 403.507C501.528 406.812 503.755 410.845 504.896 415.236C506.037 419.627 506.055 424.235 504.948 428.634C503.842 433.034 501.646 437.085 498.563 440.413C495.481 443.742 491.61 446.242 487.309 447.683C483.007 449.124 478.411 449.459 473.946 448.658L483.925 487.067C484.101 487.747 484.001 488.469 483.645 489.075C483.289 489.681 482.707 490.12 482.027 490.297L443.616 500.276C446.489 503.787 448.433 507.964 449.269 512.422C450.104 516.881 449.804 521.479 448.397 525.791C446.989 530.104 444.519 533.993 441.214 537.1C437.909 540.208 433.876 542.434 429.485 543.573V543.573Z" fill="white"/>
<path d="M325.342 398.239L282.511 409.367C282.043 409.489 281.549 409.479 281.086 409.34C280.622 409.201 280.205 408.937 279.881 408.578C279.556 408.219 279.337 407.777 279.246 407.301C279.154 406.826 279.196 406.334 279.364 405.881C280.749 402.153 281.086 398.116 280.336 394.21C279.587 390.305 277.782 386.679 275.116 383.728C272.45 380.777 269.026 378.613 265.216 377.472C261.407 376.331 257.357 376.256 253.508 377.257C249.659 378.257 246.157 380.293 243.385 383.144C240.612 385.995 238.674 389.552 237.782 393.427C236.89 397.303 237.077 401.349 238.324 405.125C239.571 408.902 241.83 412.264 244.854 414.847C245.223 415.161 245.498 415.571 245.65 416.031C245.802 416.491 245.825 416.983 245.716 417.456C245.607 417.928 245.371 418.361 245.033 418.708C244.695 419.055 244.269 419.303 243.8 419.425L200.969 430.553C200.289 430.729 199.567 430.629 198.961 430.273C198.356 429.917 197.916 429.335 197.74 428.655L187.761 390.246C184.25 393.119 180.072 395.063 175.613 395.898C171.154 396.734 166.556 396.434 162.243 395.027C157.93 393.619 154.04 391.15 150.932 387.845C147.824 384.54 145.597 380.507 144.456 376.116C143.315 371.725 143.297 367.117 144.404 362.718C145.511 358.318 147.706 354.267 150.789 350.939C153.871 347.61 157.742 345.11 162.043 343.669C166.345 342.228 170.941 341.893 175.406 342.694L165.427 304.285C165.251 303.605 165.351 302.883 165.707 302.277C166.063 301.671 166.645 301.232 167.325 301.055L205.736 291.076C202.862 287.565 200.917 283.387 200.081 278.927C199.244 274.467 199.544 269.868 200.951 265.554C202.358 261.24 204.828 257.349 208.133 254.24C211.438 251.131 215.472 248.903 219.864 247.762C224.256 246.621 228.864 246.604 233.265 247.711C237.666 248.818 241.717 251.014 245.046 254.098C248.375 257.181 250.875 261.053 252.315 265.356C253.756 269.659 254.09 274.255 253.289 278.721L291.698 268.742C292.378 268.566 293.1 268.666 293.705 269.022C294.311 269.378 294.75 269.96 294.927 270.64L297.898 282.075C298.075 282.754 297.974 283.477 297.618 284.082C297.262 284.688 296.68 285.127 296.001 285.304C295.321 285.481 294.599 285.38 293.993 285.024C293.387 284.668 292.948 284.086 292.771 283.407L290.466 274.535L250.199 284.997C249.73 285.118 249.237 285.109 248.773 284.97C248.309 284.831 247.893 284.567 247.568 284.207C247.244 283.848 247.024 283.406 246.933 282.931C246.842 282.455 246.883 281.964 247.052 281.51C248.437 277.782 248.773 273.746 248.024 269.84C247.275 265.934 245.469 262.308 242.804 259.357C240.138 256.406 236.714 254.242 232.904 253.101C229.094 251.96 225.044 251.886 221.195 252.886C217.346 253.886 213.845 255.922 211.072 258.773C208.3 261.625 206.362 265.181 205.47 269.057C204.578 272.932 204.765 276.978 206.012 280.755C207.259 284.531 209.517 287.894 212.542 290.476C212.91 290.79 213.185 291.2 213.337 291.659C213.489 292.119 213.512 292.612 213.404 293.084C213.295 293.556 213.059 293.989 212.722 294.336C212.385 294.683 211.958 294.932 211.49 295.054L171.22 305.516L181.682 345.783C181.803 346.252 181.794 346.745 181.655 347.209C181.516 347.673 181.252 348.09 180.892 348.414C180.533 348.739 180.091 348.958 179.616 349.049C179.14 349.14 178.649 349.099 178.195 348.93C174.467 347.545 170.43 347.208 166.524 347.957C162.618 348.706 158.992 350.511 156.041 353.177C153.089 355.843 150.925 359.267 149.784 363.077C148.643 366.887 148.569 370.937 149.569 374.786C150.569 378.636 152.605 382.137 155.457 384.91C158.308 387.682 161.865 389.62 165.741 390.512C169.617 391.404 173.663 391.216 177.439 389.969C181.216 388.722 184.578 386.463 187.16 383.438C187.475 383.07 187.884 382.795 188.344 382.643C188.803 382.491 189.296 382.468 189.768 382.576C190.24 382.685 190.673 382.92 191.02 383.258C191.368 383.595 191.616 384.021 191.738 384.49L202.2 424.76L238.049 415.446C235.174 411.935 233.229 407.757 232.393 403.297C231.557 398.837 231.856 394.239 233.263 389.925C234.67 385.611 237.14 381.72 240.445 378.611C243.75 375.502 247.785 373.274 252.177 372.133C256.569 370.992 261.177 370.974 265.577 372.081C269.978 373.188 274.029 375.385 277.358 378.468C280.688 381.552 283.187 385.423 284.628 389.726C286.068 394.029 286.403 398.625 285.601 403.092L321.447 393.779L312.134 357.933C308.623 360.807 304.446 362.751 299.988 363.586C295.529 364.421 290.931 364.121 286.619 362.714C282.306 361.306 278.417 358.835 275.31 355.53C272.203 352.224 269.978 348.19 268.839 343.799C267.533 338.682 267.745 333.296 269.45 328.298C271.154 323.3 274.277 318.907 278.438 315.654C279.207 310.459 281.484 305.602 284.986 301.687C288.487 297.772 293.06 294.97 298.139 293.628L298.162 293.622C298.841 293.443 299.563 293.54 300.17 293.894C300.777 294.247 301.219 294.827 301.399 295.506C301.578 296.186 301.48 296.908 301.127 297.515C300.773 298.122 300.193 298.564 299.514 298.743C295.278 299.866 291.483 302.252 288.634 305.582C285.785 308.913 284.016 313.031 283.562 317.39C283.522 317.763 283.403 318.123 283.214 318.446C283.024 318.77 282.768 319.049 282.463 319.266C278.308 322.204 275.316 326.507 274.008 331.424C272.699 336.341 273.158 341.562 275.303 346.176C277.448 350.79 281.144 354.505 285.747 356.674C290.35 358.844 295.568 359.329 300.493 358.046C304.806 356.933 308.669 354.514 311.554 351.12C311.868 350.751 312.278 350.476 312.738 350.324C313.198 350.172 313.691 350.149 314.163 350.258C314.635 350.367 315.068 350.603 315.415 350.941C315.763 351.279 316.011 351.705 316.132 352.174L327.26 395.005C327.348 395.343 327.368 395.696 327.319 396.042C327.27 396.388 327.153 396.721 326.975 397.022C326.796 397.322 326.56 397.585 326.28 397.794C326 398.003 325.681 398.154 325.342 398.239Z" fill="white"/>
<path d="M357.654 522.61L314.824 533.738C314.355 533.859 313.862 533.85 313.398 533.711C312.934 533.572 312.517 533.308 312.193 532.948C311.869 532.589 311.649 532.147 311.558 531.672C311.467 531.196 311.508 530.705 311.677 530.251C313.062 526.523 313.398 522.487 312.649 518.581C311.9 514.675 310.094 511.049 307.428 508.098C304.762 505.147 301.338 502.983 297.529 501.842C293.719 500.701 289.669 500.627 285.82 501.627C281.971 502.627 278.47 504.663 275.697 507.514C272.924 510.365 270.987 513.922 270.094 517.798C269.202 521.673 269.39 525.719 270.637 529.496C271.884 533.272 274.142 536.635 277.166 539.217C277.535 539.531 277.81 539.941 277.962 540.4C278.114 540.86 278.137 541.353 278.028 541.825C277.92 542.297 277.684 542.73 277.347 543.077C277.009 543.424 276.583 543.673 276.115 543.795L233.281 554.923C232.601 555.1 231.879 554.999 231.274 554.643C230.668 554.287 230.229 553.705 230.052 553.026L218.924 510.195C218.802 509.726 218.811 509.233 218.95 508.769C219.089 508.304 219.352 507.887 219.712 507.563C220.071 507.238 220.513 507.018 220.989 506.927C221.464 506.835 221.956 506.876 222.41 507.045C227.157 508.807 232.371 508.857 237.151 507.186C241.931 505.515 245.978 502.228 248.593 497.892C251.209 493.556 252.23 488.443 251.479 483.436C250.728 478.428 248.253 473.839 244.48 470.462C244.209 470.233 243.987 469.953 243.826 469.637C243.665 469.322 243.569 468.977 243.544 468.623C243.519 468.27 243.565 467.915 243.68 467.58C243.794 467.244 243.975 466.935 244.211 466.671C244.447 466.407 244.734 466.193 245.054 466.041C245.375 465.89 245.722 465.804 246.076 465.789C246.43 465.775 246.784 465.831 247.115 465.956C247.447 466.08 247.751 466.269 248.008 466.513C252.397 470.438 255.385 475.687 256.518 481.464C257.652 487.242 256.869 493.231 254.288 498.523C251.708 503.815 247.471 508.12 242.221 510.784C236.97 513.448 230.994 514.326 225.2 513.285L234.513 549.13L270.361 539.817C267.486 536.305 265.542 532.128 264.705 527.668C263.869 523.208 264.168 518.609 265.575 514.295C266.983 509.981 269.452 506.09 272.758 502.981C276.063 499.872 280.097 497.644 284.489 496.503C288.881 495.362 293.489 495.344 297.89 496.452C302.29 497.559 306.342 499.755 309.671 502.839C313 505.922 315.5 509.794 316.94 514.097C318.38 518.4 318.715 522.996 317.913 527.462L353.759 518.149L343.297 477.882C343.175 477.413 343.184 476.92 343.323 476.455C343.462 475.991 343.725 475.574 344.085 475.249C344.444 474.925 344.886 474.705 345.362 474.613C345.838 474.522 346.329 474.563 346.783 474.732C350.511 476.118 354.548 476.455 358.454 475.707C362.361 474.958 365.987 473.153 368.939 470.487C371.89 467.821 374.055 464.397 375.196 460.587C376.337 456.777 376.412 452.727 375.412 448.877C374.412 445.028 372.375 441.526 369.523 438.753C366.672 435.981 363.115 434.043 359.239 433.151C355.362 432.259 351.316 432.447 347.539 433.695C343.763 434.942 340.401 437.202 337.819 440.227C337.504 440.596 337.095 440.871 336.635 441.023C336.175 441.175 335.682 441.198 335.21 441.089C334.738 440.98 334.304 440.744 333.957 440.406C333.61 440.068 333.362 439.642 333.24 439.173L322.779 398.905L282.511 409.367C282.042 409.489 281.549 409.479 281.086 409.34C280.622 409.201 280.205 408.937 279.881 408.578C279.556 408.218 279.336 407.777 279.245 407.301C279.154 406.826 279.195 406.334 279.364 405.88C280.749 402.152 281.085 398.116 280.336 394.21C279.587 390.304 277.782 386.679 275.116 383.728C272.45 380.776 269.026 378.613 265.216 377.472C261.406 376.331 257.357 376.256 253.508 377.256C249.658 378.256 246.157 380.293 243.385 383.144C240.612 385.995 238.674 389.552 237.782 393.427C236.89 397.303 237.077 401.349 238.324 405.125C239.571 408.902 241.83 412.264 244.854 414.846C245.222 415.161 245.498 415.57 245.65 416.03C245.802 416.49 245.824 416.983 245.716 417.455C245.607 417.927 245.371 418.361 245.033 418.708C244.695 419.055 244.269 419.303 243.8 419.425L203.532 429.886L212.845 465.732C215.863 463.254 219.385 461.463 223.167 460.487C223.846 460.31 224.569 460.411 225.174 460.766C225.78 461.122 226.219 461.704 226.396 462.384C226.573 463.064 226.472 463.786 226.116 464.392C225.76 464.997 225.178 465.437 224.499 465.613C220.185 466.726 216.322 469.145 213.437 472.54C213.123 472.908 212.713 473.183 212.253 473.335C211.793 473.487 211.3 473.51 210.828 473.401C210.356 473.293 209.923 473.056 209.576 472.719C209.228 472.381 208.981 471.954 208.859 471.485L197.732 428.657C197.555 427.977 197.656 427.255 198.012 426.649C198.368 426.044 198.949 425.604 199.629 425.428L238.048 415.446C235.174 411.935 233.229 407.757 232.393 403.297C231.557 398.837 231.856 394.238 233.263 389.924C234.67 385.61 237.14 381.72 240.445 378.611C243.75 375.501 247.785 373.274 252.176 372.133C256.568 370.992 261.177 370.974 265.577 372.081C269.978 373.188 274.029 375.385 277.358 378.468C280.687 381.552 283.187 385.423 284.628 389.726C286.068 394.029 286.403 398.625 285.601 403.092L324.01 393.113C324.69 392.936 325.412 393.037 326.018 393.393C326.623 393.748 327.063 394.33 327.239 395.01L337.218 433.419C340.729 430.545 344.907 428.601 349.366 427.765C353.825 426.929 358.423 427.229 362.737 428.636C367.05 430.043 370.94 432.513 374.049 435.818C377.157 439.122 379.385 443.156 380.525 447.547C381.666 451.939 381.684 456.546 380.577 460.946C379.47 465.346 377.274 469.397 374.192 472.726C371.109 476.054 367.238 478.554 362.936 479.995C358.633 481.435 354.038 481.77 349.572 480.969L359.551 519.378C359.639 519.715 359.66 520.066 359.612 520.41C359.564 520.755 359.449 521.087 359.273 521.387C359.096 521.687 358.863 521.95 358.585 522.16C358.307 522.369 357.991 522.522 357.654 522.61Z" fill="white"/>
<path d="M407.301 401.945C402.911 403.087 398.304 403.106 393.904 402C389.505 400.894 385.454 398.699 382.125 395.617C378.797 392.535 376.297 388.665 374.857 384.364C373.416 380.062 373.081 375.467 373.882 371.002L335.483 380.979C334.803 381.155 334.081 381.055 333.476 380.699C332.87 380.343 332.431 379.761 332.254 379.081L322.275 340.672C318.764 343.545 314.587 345.489 310.127 346.324C305.668 347.16 301.07 346.86 296.757 345.453C292.445 344.045 288.555 341.576 285.447 338.271C282.338 334.966 280.111 330.933 278.97 326.542C277.83 322.151 277.812 317.544 278.918 313.144C280.025 308.744 282.221 304.693 285.303 301.365C288.386 298.036 292.256 295.536 296.558 294.095C300.86 292.655 305.455 292.319 309.921 293.12L299.942 254.711C299.765 254.031 299.866 253.309 300.221 252.703C300.577 252.097 301.159 251.658 301.839 251.481L397.008 226.756C397.688 226.579 398.41 226.68 399.016 227.036C399.621 227.391 400.061 227.973 400.237 228.653C400.414 229.333 400.313 230.055 399.957 230.661C399.602 231.266 399.02 231.706 398.34 231.882L305.734 255.942L316.196 296.21C316.318 296.678 316.308 297.171 316.169 297.635C316.03 298.099 315.766 298.516 315.407 298.84C315.047 299.165 314.606 299.384 314.13 299.475C313.655 299.566 313.163 299.525 312.709 299.357C308.981 297.971 304.945 297.634 301.039 298.383C297.133 299.132 293.507 300.937 290.555 303.603C287.604 306.269 285.44 309.693 284.299 313.503C283.158 317.313 283.083 321.363 284.083 325.212C285.083 329.062 287.12 332.563 289.971 335.336C292.822 338.108 296.379 340.046 300.255 340.938C304.131 341.83 308.177 341.642 311.954 340.395C315.73 339.148 319.092 336.889 321.675 333.864C321.989 333.496 322.398 333.221 322.858 333.069C323.318 332.917 323.81 332.894 324.282 333.002C324.754 333.111 325.187 333.346 325.535 333.684C325.882 334.021 326.13 334.447 326.252 334.916L336.715 375.186L376.982 364.724C377.451 364.603 377.944 364.612 378.408 364.751C378.872 364.89 379.288 365.154 379.613 365.513C379.937 365.873 380.157 366.314 380.248 366.79C380.339 367.266 380.298 367.757 380.129 368.211C378.744 371.939 378.408 375.975 379.157 379.881C379.906 383.787 381.712 387.412 384.377 390.364C387.043 393.315 390.467 395.479 394.277 396.619C398.087 397.76 402.137 397.835 405.986 396.835C409.835 395.835 413.336 393.799 416.109 390.947C418.881 388.096 420.819 384.54 421.711 380.664C422.603 376.788 422.416 372.742 421.169 368.966C419.922 365.19 417.664 361.827 414.639 359.245C414.271 358.931 413.996 358.521 413.844 358.061C413.692 357.602 413.669 357.109 413.777 356.637C413.886 356.165 414.122 355.732 414.459 355.385C414.796 355.037 415.223 354.789 415.691 354.667L455.959 344.206L424.978 224.962L416.201 227.242C415.521 227.419 414.799 227.318 414.194 226.962C413.588 226.606 413.149 226.024 412.972 225.345C412.795 224.665 412.896 223.943 413.252 223.337C413.608 222.731 414.189 222.292 414.869 222.115L426.209 219.169C426.889 218.992 427.611 219.093 428.217 219.449C428.823 219.805 429.262 220.386 429.439 221.066L461.751 345.437C461.928 346.117 461.827 346.839 461.471 347.445C461.116 348.05 460.534 348.49 459.854 348.666L421.445 358.645C424.319 362.156 426.263 366.334 427.098 370.794C427.933 375.254 427.632 379.853 426.224 384.166C424.815 388.479 422.343 392.369 419.036 395.476C415.729 398.583 411.694 400.807 407.301 401.945Z" fill="white"/>
<path d="M370.377 316.762L351.242 321.733C347.87 322.606 344.29 322.105 341.287 320.34C338.284 318.576 336.103 315.692 335.224 312.322L330.889 295.635C330.016 292.263 330.517 288.683 332.282 285.68C334.046 282.677 336.93 280.497 340.3 279.617L359.438 274.645C360.117 274.469 360.84 274.569 361.445 274.925C362.051 275.281 362.49 275.863 362.667 276.543L372.277 313.532C372.364 313.868 372.385 314.219 372.337 314.564C372.288 314.909 372.173 315.24 371.996 315.54C371.82 315.84 371.586 316.103 371.308 316.312C371.03 316.522 370.714 316.674 370.377 316.762ZM341.632 284.744C339.621 285.269 337.9 286.57 336.847 288.362C335.794 290.154 335.495 292.291 336.015 294.303L340.348 310.98C340.874 312.991 342.175 314.711 343.967 315.764C345.759 316.817 347.895 317.116 349.907 316.596L366.482 312.29L358.206 280.438L341.632 284.744Z" fill="white"/>
<path d="M422.126 323.435C421.677 323.554 421.205 323.553 420.757 323.432L382.82 313.162C382.37 313.038 381.962 312.798 381.635 312.465C381.308 312.132 381.075 311.719 380.96 311.268L371.351 274.286C371.233 273.835 371.235 273.361 371.359 272.912C371.482 272.462 371.722 272.053 372.054 271.726L400.208 244.285C400.54 243.959 400.952 243.725 401.402 243.608C401.853 243.492 402.326 243.496 402.775 243.62C403.224 243.745 403.631 243.986 403.957 244.318C404.283 244.651 404.516 245.063 404.632 245.514L424.036 320.202C424.213 320.882 424.112 321.604 423.756 322.21C423.4 322.815 422.819 323.255 422.139 323.431L422.126 323.435ZM385.686 308.45L417.75 317.123L400.639 251.263L376.852 274.447L385.686 308.45Z" fill="white"/>
<path d="M393.04 348.022C386.885 349.648 380.382 349.367 374.391 347.216C368.399 345.065 363.202 341.146 359.487 335.976L348.435 320.714C348.182 320.365 348.018 319.959 347.958 319.532C347.897 319.105 347.942 318.67 348.088 318.264C348.234 317.858 348.476 317.495 348.795 317.204C349.113 316.913 349.498 316.705 349.915 316.597L369.053 311.625C369.569 311.49 370.114 311.515 370.616 311.695C371.117 311.875 371.553 312.202 371.866 312.634L394.528 343.903C394.781 344.253 394.945 344.658 395.005 345.085C395.066 345.512 395.021 345.947 394.875 346.353C394.729 346.759 394.487 347.123 394.168 347.413C393.85 347.704 393.465 347.912 393.048 348.02L393.04 348.022ZM363.778 332.869C366.472 336.619 370.11 339.588 374.324 341.475C378.538 343.361 383.176 344.098 387.767 343.61L368.629 317.216L354.994 320.758L363.778 332.869Z" fill="white"/>
<path d="M384.178 313.176L370.377 316.762C369.697 316.938 368.975 316.838 368.369 316.482C367.764 316.126 367.324 315.544 367.148 314.864L357.538 277.875C357.361 277.195 357.462 276.473 357.818 275.868C358.173 275.262 358.755 274.823 359.435 274.646L373.236 271.06C373.916 270.884 374.638 270.984 375.244 271.34C375.849 271.696 376.289 272.278 376.465 272.958L386.075 309.947C386.252 310.627 386.151 311.349 385.796 311.954C385.44 312.56 384.858 312.999 384.178 313.176ZM371.608 310.969L380.283 308.715L372.005 276.853L363.33 279.107L371.608 310.969Z" fill="white"/>
<path d="M416.758 302.774C416.078 302.951 415.356 302.85 414.751 302.494C414.145 302.138 413.705 301.557 413.529 300.877L404.86 267.51C404.751 267.091 404.747 266.653 404.847 266.233C404.947 265.812 405.148 265.423 405.433 265.098C405.718 264.773 406.078 264.523 406.482 264.369C406.886 264.216 407.322 264.163 407.75 264.217C411.81 264.931 415.568 266.832 418.548 269.68C421.528 272.528 423.598 276.196 424.495 280.219C425.67 284.17 425.647 288.381 424.43 292.319C423.213 296.258 420.856 299.747 417.657 302.346C417.387 302.544 417.082 302.69 416.758 302.774V302.774ZM411.175 270.751L417.468 294.974C418.655 292.973 419.434 290.757 419.761 288.453C420.087 286.149 419.953 283.803 419.368 281.551C418.783 279.299 417.758 277.185 416.352 275.332C414.945 273.478 413.186 271.921 411.175 270.751V270.751Z" fill="white"/>
</g>
<g filter="url(#filter6_d_1_5)">
<path d="M655.328 203.075V262H640.974V226.662L627.796 262H616.213L602.95 226.578V262H588.597V203.075H605.552L622.088 243.869L638.456 203.075H655.328ZM667.832 238.497C667.832 233.685 668.728 229.46 670.518 225.822C672.365 222.185 674.855 219.387 677.989 217.429C681.123 215.47 684.62 214.491 688.481 214.491C691.783 214.491 694.665 215.162 697.127 216.505C699.645 217.848 701.576 219.611 702.919 221.793V215.162H717.272V262H702.919V255.369C701.52 257.551 699.561 259.314 697.043 260.657C694.581 262 691.699 262.672 688.397 262.672C684.592 262.672 681.123 261.692 677.989 259.734C674.855 257.719 672.365 254.893 670.518 251.256C668.728 247.563 667.832 243.31 667.832 238.497ZM702.919 238.581C702.919 235 701.911 232.174 699.897 230.103C697.938 228.033 695.532 226.998 692.678 226.998C689.824 226.998 687.39 228.033 685.375 230.103C683.417 232.118 682.438 234.916 682.438 238.497C682.438 242.079 683.417 244.932 685.375 247.059C687.39 249.129 689.824 250.165 692.678 250.165C695.532 250.165 697.938 249.129 699.897 247.059C701.911 244.988 702.919 242.162 702.919 238.581ZM747.046 222.968C748.725 220.394 750.823 218.38 753.342 216.925C755.86 215.414 758.658 214.659 761.735 214.659V229.851H757.79C754.209 229.851 751.523 230.635 749.732 232.202C747.941 233.713 747.046 236.399 747.046 240.26V262H732.693V215.162H747.046V222.968ZM802.255 262L787.986 242.358V262H773.632V199.885H787.986V234.216L802.172 215.162H819.883L800.409 238.665L820.05 262H802.255ZM874.708 237.826C874.708 239.169 874.624 240.568 874.457 242.023H841.972C842.196 244.932 843.119 247.171 844.742 248.738C846.421 250.249 848.464 251.004 850.87 251.004C854.451 251.004 856.941 249.493 858.34 246.471H873.617C872.834 249.549 871.407 252.319 869.336 254.781C867.322 257.243 864.776 259.174 861.698 260.573C858.62 261.972 855.179 262.672 851.373 262.672C846.785 262.672 842.7 261.692 839.118 259.734C835.537 257.775 832.739 254.977 830.724 251.34C828.71 247.702 827.703 243.45 827.703 238.581C827.703 233.713 828.682 229.46 830.641 225.822C832.655 222.185 835.453 219.387 839.034 217.429C842.616 215.47 846.729 214.491 851.373 214.491C855.906 214.491 859.935 215.442 863.461 217.345C866.986 219.247 869.728 221.961 871.687 225.487C873.701 229.012 874.708 233.125 874.708 237.826ZM860.019 234.048C860.019 231.586 859.18 229.628 857.501 228.173C855.822 226.718 853.724 225.99 851.206 225.99C848.799 225.99 846.757 226.69 845.078 228.089C843.455 229.488 842.448 231.474 842.056 234.048H860.019ZM913.422 249.829V262H906.119C900.915 262 896.858 260.741 893.948 258.223C891.038 255.649 889.583 251.48 889.583 245.716V227.081H883.875V215.162H889.583V203.747H903.937V215.162H913.338V227.081H903.937V245.884C903.937 247.283 904.273 248.29 904.944 248.906C905.616 249.521 906.735 249.829 908.302 249.829H913.422ZM933.672 210.294C931.154 210.294 929.083 209.566 927.461 208.111C925.894 206.6 925.11 204.754 925.11 202.571C925.11 200.333 925.894 198.486 927.461 197.031C929.083 195.521 931.154 194.765 933.672 194.765C936.134 194.765 938.149 195.521 939.716 197.031C941.338 198.486 942.15 200.333 942.15 202.571C942.15 204.754 941.338 206.6 939.716 208.111C938.149 209.566 936.134 210.294 933.672 210.294ZM940.807 215.162V262H926.453V215.162H940.807ZM984.784 214.659C990.268 214.659 994.633 216.449 997.879 220.031C1001.18 223.556 1002.83 228.425 1002.83 234.636V262H988.561V236.567C988.561 233.433 987.75 230.999 986.127 229.264C984.504 227.529 982.322 226.662 979.58 226.662C976.838 226.662 974.656 227.529 973.033 229.264C971.41 230.999 970.599 233.433 970.599 236.567V262H956.245V215.162H970.599V221.374C972.053 219.303 974.012 217.68 976.474 216.505C978.936 215.274 981.706 214.659 984.784 214.659ZM1035.64 214.491C1038.94 214.491 1041.82 215.162 1044.28 216.505C1046.8 217.848 1048.73 219.611 1050.07 221.793V215.162H1064.43V261.916C1064.43 266.225 1063.56 270.114 1061.83 273.584C1060.15 277.109 1057.54 279.907 1054.02 281.977C1050.55 284.048 1046.21 285.083 1041.01 285.083C1034.07 285.083 1028.45 283.432 1024.14 280.131C1019.83 276.885 1017.37 272.464 1016.75 266.868H1030.94C1031.38 268.659 1032.45 270.058 1034.13 271.065C1035.8 272.129 1037.87 272.66 1040.34 272.66C1043.3 272.66 1045.65 271.793 1047.39 270.058C1049.18 268.379 1050.07 265.665 1050.07 261.916V255.285C1048.68 257.467 1046.74 259.258 1044.28 260.657C1041.82 262 1038.94 262.672 1035.64 262.672C1031.78 262.672 1028.28 261.692 1025.14 259.734C1022.01 257.719 1019.52 254.893 1017.67 251.256C1015.88 247.563 1014.99 243.31 1014.99 238.497C1014.99 233.685 1015.88 229.46 1017.67 225.822C1019.52 222.185 1022.01 219.387 1025.14 217.429C1028.28 215.47 1031.78 214.491 1035.64 214.491ZM1050.07 238.581C1050.07 235 1049.07 232.174 1047.05 230.103C1045.09 228.033 1042.69 226.998 1039.83 226.998C1036.98 226.998 1034.55 228.033 1032.53 230.103C1030.57 232.118 1029.59 234.916 1029.59 238.497C1029.59 242.079 1030.57 244.932 1032.53 247.059C1034.55 249.129 1036.98 250.165 1039.83 250.165C1042.69 250.165 1045.09 249.129 1047.05 247.059C1049.07 244.988 1050.07 242.162 1050.07 238.581ZM656.899 350.989H631.382L626.681 364H618.623L639.776 305.83H648.589L669.658 364H661.6L656.899 350.989ZM654.717 344.778L644.141 315.232L633.564 344.778H654.717ZM706.325 317.162C711.921 317.162 716.453 318.869 719.923 322.282C723.392 325.64 725.127 330.508 725.127 336.888V364H717.572V337.979C717.572 333.39 716.425 329.893 714.131 327.487C711.837 325.024 708.703 323.793 704.73 323.793C700.701 323.793 697.483 325.052 695.077 327.571C692.727 330.089 691.551 333.754 691.551 338.567V364H683.913V318.002H691.551V324.549C693.062 322.199 695.105 320.38 697.679 319.093C700.309 317.806 703.191 317.162 706.325 317.162ZM739.787 340.833C739.787 336.132 740.738 332.019 742.641 328.494C744.543 324.913 747.145 322.143 750.447 320.184C753.804 318.225 757.526 317.246 761.611 317.246C765.64 317.246 769.137 318.113 772.103 319.848C775.069 321.583 777.279 323.765 778.734 326.395V318.002H786.457V364H778.734V355.438C777.223 358.124 774.957 360.363 771.935 362.153C768.969 363.888 765.5 364.755 761.527 364.755C757.442 364.755 753.749 363.748 750.447 361.734C747.145 359.719 744.543 356.893 742.641 353.256C740.738 349.618 739.787 345.478 739.787 340.833ZM778.734 340.917C778.734 337.447 778.035 334.426 776.636 331.851C775.237 329.277 773.334 327.319 770.928 325.976C768.578 324.577 765.976 323.877 763.122 323.877C760.268 323.877 757.666 324.549 755.315 325.892C752.965 327.235 751.09 329.193 749.691 331.768C748.293 334.342 747.593 337.363 747.593 340.833C747.593 344.358 748.293 347.436 749.691 350.066C751.09 352.64 752.965 354.627 755.315 356.026C757.666 357.369 760.268 358.04 763.122 358.04C765.976 358.04 768.578 357.369 770.928 356.026C773.334 354.627 775.237 352.64 776.636 350.066C778.035 347.436 778.734 344.386 778.734 340.917ZM812.04 301.885V364H804.401V301.885H812.04ZM869.713 318.002L842.014 385.656H834.123L843.189 363.496L824.638 318.002H833.116L847.554 355.27L861.823 318.002H869.713ZM891.745 324.297V351.409C891.745 353.648 892.221 355.242 893.172 356.194C894.124 357.089 895.774 357.537 898.125 357.537H903.749V364H896.866C892.613 364 889.423 363.021 887.297 361.062C885.17 359.104 884.107 355.886 884.107 351.409V324.297H878.147V318.002H884.107V306.418H891.745V318.002H903.749V324.297H891.745ZM921.985 310.531C920.53 310.531 919.299 310.027 918.292 309.02C917.284 308.013 916.781 306.782 916.781 305.327C916.781 303.872 917.284 302.641 918.292 301.634C919.299 300.626 920.53 300.123 921.985 300.123C923.384 300.123 924.559 300.626 925.51 301.634C926.518 302.641 927.021 303.872 927.021 305.327C927.021 306.782 926.518 308.013 925.51 309.02C924.559 310.027 923.384 310.531 921.985 310.531ZM925.678 318.002V364H918.04V318.002H925.678ZM940.879 340.917C940.879 336.16 941.83 332.019 943.733 328.494C945.635 324.913 948.266 322.143 951.623 320.184C955.037 318.225 958.926 317.246 963.291 317.246C968.942 317.246 973.587 318.617 977.224 321.359C980.918 324.101 983.352 327.906 984.527 332.775H976.301C975.518 329.977 973.979 327.766 971.684 326.144C969.446 324.521 966.648 323.709 963.291 323.709C958.926 323.709 955.4 325.22 952.714 328.242C950.028 331.208 948.685 335.433 948.685 340.917C948.685 346.457 950.028 350.738 952.714 353.759C955.4 356.781 958.926 358.292 963.291 358.292C966.648 358.292 969.446 357.509 971.684 355.942C973.923 354.375 975.462 352.137 976.301 349.227H984.527C983.296 353.927 980.834 357.705 977.14 360.559C973.447 363.356 968.831 364.755 963.291 364.755C958.926 364.755 955.037 363.776 951.623 361.818C948.266 359.859 945.635 357.089 943.733 353.508C941.83 349.926 940.879 345.729 940.879 340.917ZM1016.04 364.755C1012.51 364.755 1009.35 364.168 1006.55 362.993C1003.76 361.762 1001.55 360.083 999.923 357.956C998.301 355.774 997.405 353.284 997.237 350.486H1005.13C1005.35 352.78 1006.41 354.655 1008.32 356.11C1010.28 357.565 1012.82 358.292 1015.96 358.292C1018.87 358.292 1021.16 357.649 1022.84 356.362C1024.52 355.075 1025.36 353.452 1025.36 351.493C1025.36 349.479 1024.46 347.996 1022.67 347.044C1020.88 346.037 1018.11 345.058 1014.36 344.107C1010.95 343.211 1008.15 342.316 1005.97 341.42C1003.84 340.469 1001.99 339.098 1000.43 337.307C998.916 335.461 998.161 333.055 998.161 330.089C998.161 327.738 998.86 325.584 1000.26 323.625C1001.66 321.667 1003.64 320.128 1006.22 319.009C1008.79 317.834 1011.73 317.246 1015.03 317.246C1020.12 317.246 1024.24 318.533 1027.37 321.107C1030.51 323.681 1032.18 327.207 1032.41 331.684H1024.77C1024.6 329.277 1023.62 327.347 1021.83 325.892C1020.1 324.437 1017.75 323.709 1014.78 323.709C1012.04 323.709 1009.86 324.297 1008.23 325.472C1006.61 326.647 1005.8 328.186 1005.8 330.089C1005.8 331.6 1006.27 332.859 1007.23 333.866C1008.23 334.817 1009.46 335.601 1010.92 336.216C1012.43 336.776 1014.5 337.419 1017.13 338.147C1020.43 339.042 1023.12 339.938 1025.19 340.833C1027.26 341.672 1029.02 342.959 1030.48 344.694C1031.99 346.429 1032.77 348.695 1032.83 351.493C1032.83 354.011 1032.13 356.278 1030.73 358.292C1029.33 360.307 1027.34 361.902 1024.77 363.077C1022.25 364.196 1019.34 364.755 1016.04 364.755Z" fill="white"/>
</g>
</g>
<defs>
<filter id="filter0_f_1_5" x="-168.788" y="441.475" width="471.576" height="525.56" filterUnits="userSpaceOnUse" color-interpolation-filters="sRGB">
<feFlood flood-opacity="0" result="BackgroundImageFix"/>
<feBlend mode="normal" in="SourceGraphic" in2="BackgroundImageFix" result="shape"/>
<feGaussianBlur stdDeviation="60.323" result="effect1_foregroundBlur_1_5"/>
</filter>
<filter id="filter1_f_1_5" x="-406.051" y="130.203" width="671.103" height="727.621" filterUnits="userSpaceOnUse" color-interpolation-filters="sRGB">
<feFlood flood-opacity="0" result="BackgroundImageFix"/>
<feBlend mode="normal" in="SourceGraphic" in2="BackgroundImageFix" result="shape"/>
<feGaussianBlur stdDeviation="60.323" result="effect1_foregroundBlur_1_5"/>
</filter>
<filter id="filter2_f_1_5" x="456.63" y="321.308" width="721.648" height="344.48" filterUnits="userSpaceOnUse" color-interpolation-filters="sRGB">
<feFlood flood-opacity="0" result="BackgroundImageFix"/>
<feBlend mode="normal" in="SourceGraphic" in2="BackgroundImageFix" result="shape"/>
<feGaussianBlur stdDeviation="75.9623" result="effect1_foregroundBlur_1_5"/>
</filter>
<filter id="filter3_ddd_1_5" x="651.889" y="404" width="345.63" height="90" filterUnits="userSpaceOnUse" color-interpolation-filters="sRGB">
<feFlood flood-opacity="0" result="BackgroundImageFix"/>
<feColorMatrix in="SourceAlpha" type="matrix" values="0 0 0 0 0 0 0 0 0 0 0 0 0 0 0 0 0 0 127 0" result="hardAlpha"/>
<feOffset dy="4"/>
<feGaussianBlur stdDeviation="2"/>
<feComposite in2="hardAlpha" operator="out"/>
<feColorMatrix type="matrix" values="0 0 0 0 0 0 0 0 0 0 0 0 0 0 0 0 0 0 0.25 0"/>
<feBlend mode="normal" in2="BackgroundImageFix" result="effect1_dropShadow_1_5"/>
<feColorMatrix in="SourceAlpha" type="matrix" values="0 0 0 0 0 0 0 0 0 0 0 0 0 0 0 0 0 0 127 0" result="hardAlpha"/>
<feOffset dy="4"/>
<feGaussianBlur stdDeviation="2"/>
<feComposite in2="hardAlpha" operator="out"/>
<feColorMatrix type="matrix" values="0 0 0 0 0 0 0 0 0 0 0 0 0 0 0 0 0 0 0.25 0"/>
<feBlend mode="normal" in2="effect1_dropShadow_1_5" result="effect2_dropShadow_1_5"/>
<feColorMatrix in="SourceAlpha" type="matrix" values="0 0 0 0 0 0 0 0 0 0 0 0 0 0 0 0 0 0 127 0" result="hardAlpha"/>
<feOffset dx="3" dy="4"/>
<feGaussianBlur stdDeviation="5.5"/>
<feComposite in2="hardAlpha" operator="out"/>
<feColorMatrix type="matrix" values="0 0 0 0 0 0 0 0 0 0 0 0 0 0 0 0 0 0 0.25 0"/>
<feBlend mode="normal" in2="effect2_dropShadow_1_5" result="effect3_dropShadow_1_5"/>
<feBlend mode="normal" in="SourceGraphic" in2="effect3_dropShadow_1_5" result="shape"/>
</filter>
<filter id="filter4_b_1_5" x="627.064" y="378.175" width="389.279" height="133.649" filterUnits="userSpaceOnUse" color-interpolation-filters="sRGB">
<feFlood flood-opacity="0" result="BackgroundImageFix"/>
<feGaussianBlur in="BackgroundImage" stdDeviation="16.4123"/>
<feComposite in2="SourceAlpha" operator="in" result="effect1_backgroundBlur_1_5"/>
<feBlend mode="normal" in="SourceGraphic" in2="effect1_backgroundBlur_1_5" result="shape"/>
</filter>
<filter id="filter5_d_1_5" x="696.053" y="430.834" width="260.299" height="25.5996" filterUnits="userSpaceOnUse" color-interpolation-filters="sRGB">
<feFlood flood-opacity="0" result="BackgroundImageFix"/>
<feColorMatrix in="SourceAlpha" type="matrix" values="0 0 0 0 0 0 0 0 0 0 0 0 0 0 0 0 0 0 127 0" result="hardAlpha"/>
<feOffset dx="2.37037" dy="1.18519"/>
<feGaussianBlur stdDeviation="0.592593"/>
<feComposite in2="hardAlpha" operator="out"/>
<feColorMatrix type="matrix" values="0 0 0 0 0.843164 0 0 0 0 0.474152 0 0 0 0 0.739841 0 0 0 0.21 0"/>
<feBlend mode="normal" in2="BackgroundImageFix" result="effect1_dropShadow_1_5"/>
<feBlend mode="normal" in="SourceGraphic" in2="effect1_dropShadow_1_5" result="shape"/>
</filter>
<filter id="filter6_d_1_5" x="588.597" y="194.765" width="487.831" height="198.891" filterUnits="userSpaceOnUse" color-interpolation-filters="sRGB">
<feFlood flood-opacity="0" result="BackgroundImageFix"/>
<feColorMatrix in="SourceAlpha" type="matrix" values="0 0 0 0 0 0 0 0 0 0 0 0 0 0 0 0 0 0 127 0" result="hardAlpha"/>
<feOffset dx="8" dy="4"/>
<feGaussianBlur stdDeviation="2"/>
<feComposite in2="hardAlpha" operator="out"/>
<feColorMatrix type="matrix" values="0 0 0 0 0.843164 0 0 0 0 0.474152 0 0 0 0 0.739841 0 0 0 0.21 0"/>
<feBlend mode="normal" in2="BackgroundImageFix" result="effect1_dropShadow_1_5"/>
<feBlend mode="normal" in="SourceGraphic" in2="effect1_dropShadow_1_5" result="shape"/>
</filter>
<linearGradient id="paint0_linear_1_5" x1="-0.0199334" y1="719.996" x2="615.293" y2="-373.897" gradientUnits="userSpaceOnUse">
<stop stop-color="#AC1D5C"/>
<stop offset="1" stop-color="#550327"/>
</linearGradient>
<radialGradient id="paint1_radial_1_5" cx="0" cy="0" r="1" gradientUnits="userSpaceOnUse" gradientTransform="translate(22.7168 753.36) rotate(-77.8648) scale(76.1853 74.6191)">
<stop stop-color="#444CE4"/>
<stop offset="1" stop-color="#F257A0"/>
</radialGradient>
<radialGradient id="paint2_radial_1_5" cx="0" cy="0" r="1" gradientUnits="userSpaceOnUse" gradientTransform="translate(43.0979 471.402) rotate(156.091) scale(201.377 213.361)">
<stop stop-color="#FFD7D7"/>
<stop offset="0.0001"/>
<stop offset="0.778467" stop-color="#6343FF"/>
<stop offset="1" stop-color="#484EB7" stop-opacity="0"/>
<stop offset="1" stop-color="#EE8969" stop-opacity="0"/>
</radialGradient>
<radialGradient id="paint3_radial_1_5" cx="0" cy="0" r="1" gradientUnits="userSpaceOnUse" gradientTransform="translate(734.919 489.966) rotate(-9.59641) scale(85.3597 39.1326)">
<stop stop-color="white"/>
<stop offset="1" stop-color="#F257A0"/>
</radialGradient>
<linearGradient id="paint4_linear_1_5" x1="667.504" y1="419" x2="983.721" y2="427.159" gradientUnits="userSpaceOnUse">
<stop stop-color="white"/>
<stop offset="0.557292" stop-color="#FF258E"/>
<stop offset="1" stop-color="#B3049A"/>
</linearGradient>
<clipPath id="clip0_1_5">
<rect width="1280" height="720" rx="20" fill="white"/>
</clipPath>
<clipPath id="clip1_1_5">
<rect width="339" height="339" fill="white" transform="translate(118 274.245) rotate(-14.5639)"/>
</clipPath>
</defs>
</svg>
